<?xml version="1.0" encoding="UTF-8" standalone="no"?>
<svg
   xmlns:dc="http://purl.org/dc/elements/1.1/"
   xmlns:cc="http://creativecommons.org/ns#"
   xmlns:rdf="http://www.w3.org/1999/02/22-rdf-syntax-ns#"
   xmlns:svg="http://www.w3.org/2000/svg"
   xmlns="http://www.w3.org/2000/svg"
   xmlns:sodipodi="http://sodipodi.sourceforge.net/DTD/sodipodi-0.dtd"
   xmlns:inkscape="http://www.inkscape.org/namespaces/inkscape"
   width="90.019135mm"
   height="120.74094mm"
   viewBox="0 0 90.019135 120.74094"
   version="1.1"
   id="svg8"
   inkscape:version="1.0.2 (394de47547, 2021-03-26)"
   sodipodi:docname="indents.svg">
  <defs
     id="defs2" />
  <sodipodi:namedview
     id="base"
     pagecolor="#ffffff"
     bordercolor="#666666"
     borderopacity="1.0"
     inkscape:pageopacity="0.0"
     inkscape:pageshadow="2"
     inkscape:zoom="0.98994949"
     inkscape:cx="273.3518"
     inkscape:cy="114.63821"
     inkscape:document-units="mm"
     inkscape:current-layer="layer1"
     inkscape:document-rotation="0"
     showgrid="false"
     inkscape:window-width="1515"
     inkscape:window-height="956"
     inkscape:window-x="50"
     inkscape:window-y="27"
     inkscape:window-maximized="0" />
  <metadata
     id="metadata5">
    <rdf:RDF>
      <cc:Work
         rdf:about="">
        <dc:format>image/svg+xml</dc:format>
        <dc:type
           rdf:resource="http://purl.org/dc/dcmitype/StillImage" />
        <dc:title />
      </cc:Work>
    </rdf:RDF>
  </metadata>
  <g
     inkscape:label="Layer 1"
     inkscape:groupmode="layer"
     id="layer1"
     transform="translate(-1.68359,-175.52593)">
    <path
       style="fill:#000000;stroke-width:0.254"
       d="m 55.480008,296.19019 c -8.934574,-1.18705 -16.489984,-4.3512 -24.731724,-10.35747 -4.66475,-3.3995 -12.73045,-11.46729 -14.70351,-14.70733 -0.52483,-0.86185 -1.65874,-2.65284 -2.5198,-3.97999 -3.03584,-4.67914 -4.5616898,-7.81098 -7.2393898,-14.859 -3.70518,-9.75246 -4.85889,-16.92434 -4.55589,-28.321 0.11553,-4.34533 0.27903,-6.59922 0.54188,-7.46987 0.20704,-0.68578 0.37643,-1.6302 0.37643,-2.09871 0,-0.46852 0.22066,-1.62193 0.49035,-2.56314 0.26969,-0.9412 0.71053,-2.47913 0.97963,-3.41762 0.26911,-0.93849 0.80272,-2.11728 1.18581,-2.61954 0.3831,-0.50226 0.95312,-1.56321 1.26671,-2.35766 0.3136,-0.79445 0.93093,-2.00976 1.37184,-2.70069 0.44092,-0.69092 0.80166,-1.34716 0.80166,-1.4583 0,-0.11114 0.40475,-0.73232 0.89943,-1.38039 0.4946898,-0.64808 1.0717698,-1.59204 1.2824098,-2.0977 0.21063,-0.50566 0.76374,-1.31943 1.22912,-1.80838 0.46539,-0.48895 1.38304,-1.63195 2.03922,-2.54 1.19561,-1.65452 5.71121,-5.82299 9.28182,-8.56831 7.06261,-5.43019 19.5015,-8.90638 23.876,-6.67244 0.48895,0.2497 1.363872,0.58193 1.944269,0.73831 1.140504,0.30728 3.258158,1.64278 4.620956,2.91422 1.414206,1.3194 2.967869,3.6897 4.337782,6.61782 0.714464,1.52713 1.566029,3.12733 1.892363,3.556 0.326335,0.42867 0.852397,1.29375 1.169028,1.9224 1.005388,1.99614 3.069531,4.55878 5.080327,6.30724 2.431885,2.11462 4.415915,3.49937 9.369809,6.53964 4.588922,2.81628 7.086468,4.85175 9.706422,7.91064 4.065128,4.74618 5.254887,6.59458 5.931088,9.21448 0.391378,1.51637 0.393995,1.81628 0.0321,3.67795 -0.319938,1.64581 -0.692729,2.52859 -1.982582,4.69477 -1.727456,2.9011 -3.549099,4.86922 -10.690364,11.54997 -5.024159,4.70017 -7.524019,8.33598 -8.775612,12.7633 -0.554936,1.96301 -1.087051,3.32978 -1.839051,4.72374 -0.423504,0.78504 -0.514739,1.40305 -0.498886,3.37943 0.01067,1.33029 0.136014,2.63661 0.278546,2.90293 0.887225,1.6578 2.26803,6.47198 2.657935,9.26691 0.09744,0.6985 0.608426,2.0701 1.135517,3.048 0.527091,0.9779 1.398168,3.11337 1.935729,4.7455 0.948052,2.87844 0.967349,3.00802 0.643057,4.318 -0.480373,1.94045 -1.292606,3.21195 -3.179105,4.97668 -1.835414,1.71693 -4.471101,3.11694 -7.066828,3.75371 -1.599926,0.39249 -6.92196,0.67545 -8.574494,0.4559 z m 8.579568,-7.05007 c 2.149265,-2.24369 2.626833,-3.24014 2.297176,-4.79306 -0.38989,-1.83668 -1.603375,-2.91705 -3.547122,-3.15803 -1.323737,-0.16411 -2.316813,0.43332 -4.678416,2.81456 -2.035152,2.05206 -2.048068,2.07344 -2.091792,3.46181 -0.05427,1.72322 0.520627,2.96569 1.686007,3.64384 2.258174,1.31404 3.58398,0.90188 6.334147,-1.96912 z m 5.946176,-44.19683 c 1.557124,-1.68899 3.926462,-4.21898 5.265194,-5.62219 1.338735,-1.40321 2.991802,-3.17486 3.673483,-3.937 0.681682,-0.76214 1.961548,-2.15128 2.844142,-3.08698 0.882596,-0.9357 1.78943,-2.05847 2.015187,-2.49504 0.735676,-1.42264 -0.01511,-3.31645 -1.572818,-3.9673 -1.273127,-0.53194 -2.19897,-0.23862 -3.787496,1.19996 -0.752853,0.68179 -2.214154,1.64076 -3.247334,2.13104 -1.712994,0.81289 -2.255914,1.28835 -6.161806,5.39616 -8.231798,8.65735 -7.971488,8.33105 -7.954097,9.97048 0.02263,2.13264 1.255827,3.61499 3.376222,4.05832 1.492095,0.31197 2.524821,-0.36682 5.549323,-3.64745 z m -56.372248,-2.3783 c 0.24448,-0.21468 0.4445,-0.29974 0.4445,-0.18903 0,0.53457 1.53171,-1.81036 1.67241,-2.56033 0.19674,-1.04872 -0.95362,-5.77696 -1.62779,-6.69054 -1.16821,-1.58308 -3.29701,-2.22643 -4.7982698,-1.4501 -1.08046,0.55872 -2.05327,1.79284 -2.25316,2.85837 -0.22298,1.18857 0.8052,5.51194 1.60029,6.72905 1.15972,1.77527 3.6725298,2.43491 4.9620198,1.30258 z m 62.099064,-14.44396 c 4.194073,-2.593 4.507606,-8.22542 0.622816,-11.18845 -2.919878,-2.22706 -7.074479,-1.60719 -9.366192,1.39744 -2.681861,3.51616 -1.089784,8.7878 3.128201,10.35801 1.587421,0.59095 4.162872,0.33089 5.615175,-0.567 z M 79.4762,215.72961 c 1.855392,-0.77523 2.37486,-3.4387 0.935714,-4.79769 -0.63924,-0.60364 -18.107556,-11.21746 -20.316371,-12.34431 -1.793524,-0.91499 -3.656924,-0.55192 -4.929512,0.96046 -1.707437,2.02917 -0.912922,4.92623 1.710977,6.23879 0.4191,0.20965 1.6764,0.94851 2.794,1.64192 1.1176,0.6934 2.77495,1.68208 3.683,2.19705 1.618795,0.91805 4.32119,2.63264 4.572,2.90079 0.409681,0.43801 3.353828,1.58525 4.25371,1.65753 1.638701,0.13163 2.670586,0.39301 3.36629,0.85268 1.66561,1.10053 2.57195,1.26029 3.930192,0.69278 z M 41.939534,185.75059 c 1.28399,-0.33731 2.56192,-0.73498 2.83984,-0.88372 0.7623,-0.40798 1.5075,-1.58816 1.7863,-2.82901 0.41827,-1.8616 -0.78938,-3.7001 -2.85318,-4.34362 -0.84629,-0.26388 -1.32436,-0.21475 -3.683,0.37854 -2.75637,0.69333 -3.5823,1.10972 -4.41592,2.22627 -0.5448,0.72969 -0.8372,2.22126 -0.61164,3.11999 0.22198,0.8844 1.38714,2.19752 2.30448,2.59708 1.10374,0.48076 1.98444,0.43029 4.63312,-0.26553 z"
       id="path76" />
  </g>
</svg>
